<svg width="50" height="44" viewBox="0 0 50 44" fill="none" xmlns="http://www.w3.org/2000/svg">
<path d="M25 0C24.6994 3.85537e-05 24.4019 0.0596921 24.1245 0.175508C23.8472 0.291323 23.5956 0.461 23.3842 0.674716L0.461648 20.6765C0.318486 20.7821 0.20213 20.9199 0.121946 21.0787C0.0417628 21.2376 -6.83567e-06 21.413 8.39071e-10 21.5909C8.39072e-10 21.8923 0.119724 22.1813 0.332833 22.3944C0.545943 22.6075 0.834981 22.7273 1.13636 22.7273H6.81818V40.9091C6.81818 42.1636 7.83636 43.1818 9.09091 43.1818H18.1818C19.4364 43.1818 20.4545 42.1636 20.4545 40.9091V27.2727H29.5455V40.9091C29.5455 42.1636 30.5636 43.1818 31.8182 43.1818H40.9091C42.1636 43.1818 43.1818 42.1636 43.1818 40.9091V22.7273H48.8636C49.165 22.7273 49.4541 22.6075 49.6672 22.3944C49.8803 22.1813 50 21.8923 50 21.5909C50 21.413 49.9582 21.2376 49.8781 21.0787C49.7979 20.9199 49.6815 20.7821 49.5384 20.6765L26.6291 0.688033C26.6247 0.683575 26.6202 0.679136 26.6158 0.674716C26.4044 0.461 26.1528 0.291323 25.8755 0.175508C25.5981 0.0596921 25.3006 3.85537e-05 25 0Z" fill="black"/>
</svg>
