<svg width="300" height="46" viewBox="0 0 300 46" fill="none" xmlns="http://www.w3.org/2000/svg">
<path d="M1.66406 37.3516C1.36719 37.3203 1.14062 37.1875 0.984375 36.9531C0.828125 36.7188 0.765625 36.4609 0.796875 36.1797C0.875 35.6953 1.02344 35.25 1.24219 34.8438C1.46094 34.4375 1.61719 34.1328 1.71094 33.9297C1.82031 33.7266 1.92969 33.5 2.03906 33.25L2.92969 31.1875L12.5625 2.33594L22.9219 22.3516L32.9766 2.33594L45 37H32.4141L26.6016 19.0938L17.6016 37.8438L8.13281 20.9688L4.85156 31.2109C4.33594 32.3516 3.96875 33.3203 3.75 34.1172C3.53125 34.9141 3.35156 35.5312 3.21094 35.9688C2.89844 36.9531 2.38281 37.4141 1.66406 37.3516ZM47.4609 24.3438C47.4609 22.4688 47.7969 20.7656 48.4688 19.2344C49.1562 17.6875 50.0938 16.3438 51.2812 15.2031C53.8438 12.7656 57.0625 11.5469 60.9375 11.5469C64.8906 11.5469 68.1094 12.8125 70.5938 15.3438C72.9688 17.7344 74.1562 20.7578 74.1562 24.4141C74.1562 28.0859 72.9375 31.1562 70.5 33.625C67.9844 36.1719 64.7656 37.4453 60.8438 37.4453C57.0156 37.4453 53.8438 36.2344 51.3281 33.8125C48.75 31.3125 47.4609 28.1562 47.4609 24.3438ZM60.1875 35.6875C60.3125 35.7031 60.4375 35.7109 60.5625 35.7109H60.8906C64.0469 35.7109 66.6953 34.7344 68.8359 32.7812C71.1172 30.6719 72.2578 27.9062 72.2578 24.4844C72.2578 21.1406 71.1875 18.4297 69.0469 16.3516C66.9375 14.2891 64.2109 13.2578 60.8672 13.2578H60.5156C60.4062 13.2578 60.2969 13.2656 60.1875 13.2812V35.6875ZM76.2188 11.9688H86.8359L93.2109 25.1172L97.2188 17.1484C98.0469 15.4453 98.5625 14.1797 98.7656 13.3516C98.9844 12.5234 99.1953 12.0156 99.3984 11.8281C99.6172 11.6406 99.875 11.5469 100.172 11.5469C100.484 11.5469 100.727 11.6484 100.898 11.8516C101.07 12.0547 101.156 12.2578 101.156 12.4609C101.156 12.6641 101.133 12.8672 101.086 13.0703C101.055 13.2734 100.984 13.5469 100.875 13.8906C100.641 14.5312 100.148 15.6406 99.3984 17.2188L89.0859 38.0547L76.2188 11.9688ZM110.18 7.86719C108.57 7.86719 107.312 7.50781 106.406 6.78906C105.5 6.07031 105.047 5.125 105.047 3.95312C105.047 2.96875 105.547 2.125 106.547 1.42188C107.609 0.671875 108.734 0.296875 109.922 0.296875C111.109 0.296875 112.023 0.414062 112.664 0.648438C113.32 0.882812 113.875 1.1875 114.328 1.5625C115.234 2.32813 115.688 3.21875 115.688 4.23438C115.688 5.25 115.172 6.10938 114.141 6.8125C113.109 7.51562 111.789 7.86719 110.18 7.86719ZM105.258 11.9688H115.336V37H105.258V11.9688ZM144.773 31.3047C145.383 31.3047 145.688 31.5859 145.688 32.1484C145.688 32.5703 145.414 33.0703 144.867 33.6484C142.398 36.1797 139.016 37.4453 134.719 37.4453C130.859 37.4453 127.609 36.2812 124.969 33.9531C122.234 31.5312 120.867 28.4688 120.867 24.7656C120.867 20.9844 122.102 17.875 124.57 15.4375C127.18 12.8438 130.648 11.5469 134.977 11.5469C138.445 11.5469 141.359 12.6016 143.719 14.7109C146.266 16.9766 147.539 19.9531 147.539 23.6406C147.539 24.1719 147.523 24.7344 147.492 25.3281H132.023V35.3828C133.086 35.6016 134.281 35.7109 135.609 35.7109C138.422 35.7109 140.82 34.7812 142.805 32.9219C143.211 32.5156 143.5 32.1953 143.672 31.9609C144.031 31.5234 144.398 31.3047 144.773 31.3047ZM138.516 13.7031C137.5 13.4062 136.352 13.2578 135.07 13.2578C133.789 13.2578 132.773 13.3438 132.023 13.5156V23.6172H138.516V13.7031ZM166.383 33.6484L166.453 35.9922C166.453 36.3984 166.344 36.7109 166.125 36.9297C165.906 37.1484 165.641 37.2578 165.328 37.2578C165.031 37.2578 164.781 37.1562 164.578 36.9531C164.375 36.75 164.273 36.5312 164.273 36.2969C164.273 36.0469 164.289 35.8203 164.32 35.6172C164.367 35.3984 164.406 35.1562 164.438 34.8906C164.516 34.4375 164.555 33.3047 164.555 31.4922V2.33594L190.031 22.5391V8.57031C190.031 7.50781 190 6.75 189.938 6.29688C189.859 5.5625 189.82 5.04688 189.82 4.75C189.82 3.96875 190.156 3.57812 190.828 3.57812C191.094 3.57812 191.344 3.67188 191.578 3.85938C191.828 4.04688 191.953 4.32031 191.953 4.67969V5.5L191.859 8.89844V38.2891L166.383 18.2969V33.6484ZM205.102 7.86719C203.492 7.86719 202.234 7.50781 201.328 6.78906C200.422 6.07031 199.969 5.125 199.969 3.95312C199.969 2.96875 200.469 2.125 201.469 1.42188C202.531 0.671875 203.656 0.296875 204.844 0.296875C206.031 0.296875 206.945 0.414062 207.586 0.648438C208.242 0.882812 208.797 1.1875 209.25 1.5625C210.156 2.32813 210.609 3.21875 210.609 4.23438C210.609 5.25 210.094 6.10938 209.062 6.8125C208.031 7.51562 206.711 7.86719 205.102 7.86719ZM200.18 11.9688H210.258V37H200.18V11.9688ZM223.055 29.3594C221.664 29.7812 220.969 30.2422 220.969 30.7422C220.969 31.2266 221.375 31.5625 222.188 31.75C223.766 32.125 225.938 32.3516 228.703 32.4297C231.469 32.4922 233.547 32.7031 234.938 33.0625C236.344 33.4062 237.461 33.8438 238.289 34.375C239.789 35.3594 240.539 36.6641 240.539 38.2891C240.539 40.3203 239.531 41.9688 237.516 43.2344C235.281 44.625 232.133 45.3203 228.07 45.3203C223.867 45.3203 220.398 44.6953 217.664 43.4453C216.68 42.9609 216.188 42.4141 216.188 41.8047C216.188 41.5391 216.281 41.3281 216.469 41.1719C216.672 41.0156 216.883 40.9375 217.102 40.9375C217.367 40.9375 217.672 41.0391 218.016 41.2422C218.812 41.6953 219.547 42.0703 220.219 42.3672C220.906 42.6797 221.977 42.9766 223.43 43.2578C224.883 43.5391 226.281 43.6797 227.625 43.6797C228.984 43.6797 230.086 43.6172 230.93 43.4922C231.789 43.3828 232.5 43.25 233.062 43.0938C234.172 42.7656 234.727 42.3984 234.727 41.9922C234.727 41.6172 234.617 41.3438 234.398 41.1719C234.18 41 233.891 40.8438 233.531 40.7031C233.188 40.5781 232.703 40.4609 232.078 40.3516C230.797 40.1328 229.055 39.9688 226.852 39.8594C224.648 39.75 222.906 39.5312 221.625 39.2031C220.344 38.8906 219.297 38.4844 218.484 37.9844C216.906 37.0312 216.117 35.7422 216.117 34.1172C216.117 31.7734 217.703 29.875 220.875 28.4219C219.422 27.625 218.266 26.5781 217.406 25.2812C216.547 23.9688 216.117 22.5547 216.117 21.0391C216.117 19.5078 216.398 18.1875 216.961 17.0781C217.539 15.9531 218.344 14.9844 219.375 14.1719C221.547 12.4219 224.352 11.5469 227.789 11.5469C229.32 11.5469 230.859 11.7812 232.406 12.25C234.625 10.1094 236.68 9.03906 238.57 9.03906C239.367 9.03906 239.953 9.17188 240.328 9.4375C240.719 9.70312 240.914 10.0391 240.914 10.4453C240.914 10.8516 240.781 11.1484 240.516 11.3359C240.25 11.5078 240 11.5938 239.766 11.5938C239.344 11.5938 238.984 11.5469 238.688 11.4531C238.25 11.2969 237.805 11.2188 237.352 11.2188C236.508 11.2188 235.445 11.8047 234.164 12.9766C236.711 14.2266 238.375 16.0234 239.156 18.3672C239.406 19.1484 239.531 20.1094 239.531 21.25C239.531 22.375 239.203 23.5 238.547 24.625C237.891 25.75 237.016 26.7188 235.922 27.5312C233.641 29.2188 230.961 30.0625 227.883 30.0625C226.258 30.0938 224.648 29.8594 223.055 29.3594ZM227.977 28.3516C230.508 28.3203 232.688 27.7031 234.516 26.5C236.625 25.125 237.68 23.2656 237.68 20.9219C237.68 18.5781 236.641 16.6875 234.562 15.25C232.656 13.9375 230.461 13.2578 227.977 13.2109V28.3516ZM265.078 11.5469C270.578 11.5469 273.328 14.2188 273.328 19.5625V37H263.25V14.1953C262.969 14.0078 262.594 13.9141 262.125 13.9141C261.672 13.9141 261.195 14.0234 260.695 14.2422C260.195 14.4609 259.672 14.7656 259.125 15.1562C257.953 16.0156 256.914 17.0938 256.008 18.3906V37H245.93V3.83594H256.008V15.9297C258.68 13.0078 261.703 11.5469 265.078 11.5469ZM290.625 37.4453C284.5 37.4453 281.438 34.6484 281.438 29.0547L281.414 13.6797L278.719 13.7969C277.875 13.7969 277.453 13.4766 277.453 12.8359C277.453 12.1953 277.906 11.875 278.812 11.875L281.062 11.9688H281.414V8.33594L291.469 3.83594V11.9688H294.609L296.836 11.875C297.758 11.875 298.219 12.2031 298.219 12.8594C298.219 13.1562 298.086 13.3906 297.82 13.5625C297.57 13.7188 297.281 13.7969 296.953 13.7969L294.047 13.6797H291.469V35.7109C293.297 35.6797 294.82 35.1562 296.039 34.1406C296.617 33.7031 297.023 33.1406 297.258 32.4531C297.508 31.7656 297.727 31.3281 297.914 31.1406C298.117 30.9375 298.352 30.8359 298.617 30.8359C298.883 30.8359 299.109 30.9453 299.297 31.1641C299.484 31.3672 299.578 31.6172 299.578 31.9141C299.578 32.1953 299.5 32.5156 299.344 32.875C299.188 33.2188 298.953 33.5859 298.641 33.9766C297.938 34.8516 297.125 35.5469 296.203 36.0625C294.531 36.9844 292.672 37.4453 290.625 37.4453Z" fill="white"/>
</svg>
